<svg width="800" height="800" viewBox="-400 -400 800 800" xmlns="http://www.w3.org/2000/svg"><line x1="0" y1="0" x2="-100" y2="80" stroke="gray" stroke-width="3" /><line x1="0" y1="0" x2="0" y2="80" stroke="gray" stroke-width="3" /><line x1="0" y1="0" x2="100" y2="80" stroke="gray" stroke-width="3" /><line x1="-100" y1="80" x2="-100" y2="160" stroke="gray" stroke-width="3" /><line x1="-100" y1="80" x2="0" y2="160" stroke="gray" stroke-width="3" /><line x1="-100" y1="80" x2="100" y2="160" stroke="gray" stroke-width="3" /><line x1="0" y1="80" x2="-90" y2="160" stroke="gray" stroke-width="3" /><line x1="0" y1="80" x2="10" y2="160" stroke="gray" stroke-width="3" /><line x1="0" y1="80" x2="110" y2="160" stroke="gray" stroke-width="3" /><line x1="100" y1="80" x2="-80" y2="160" stroke="gray" stroke-width="3" /><line x1="100" y1="80" x2="20" y2="160" stroke="gray" stroke-width="3" /><line x1="100" y1="80" x2="120" y2="160" stroke="gray" stroke-width="3" /><circle cx="0" cy="0" r="10" fill="blue" stroke="black" stroke-width="0.5" /><text x="0" y="3.3333333333333335" dominant-baseline="middle"
          text-anchor="middle" font-size="15" fill="white">0</text><circle cx="-100" cy="80" r="10" fill="blue" stroke="black" stroke-width="0.5" /><text x="-100" y="83.33333333333333" dominant-baseline="middle"
          text-anchor="middle" font-size="15" fill="white">1</text><circle cx="0" cy="80" r="10" fill="blue" stroke="black" stroke-width="0.5" /><text x="0" y="83.33333333333333" dominant-baseline="middle"
          text-anchor="middle" font-size="15" fill="white">2</text><circle cx="100" cy="80" r="10" fill="blue" stroke="black" stroke-width="0.5" /><text x="100" y="83.33333333333333" dominant-baseline="middle"
          text-anchor="middle" font-size="15" fill="white">3</text><circle cx="-100" cy="160" r="10" fill="blue" stroke="black" stroke-width="0.5" /><text x="-100" y="163.33333333333334" dominant-baseline="middle"
          text-anchor="middle" font-size="15" fill="white">4</text><circle cx="0" cy="160" r="10" fill="blue" stroke="black" stroke-width="0.5" /><text x="0" y="163.33333333333334" dominant-baseline="middle"
          text-anchor="middle" font-size="15" fill="white">5</text><circle cx="100" cy="160" r="10" fill="blue" stroke="black" stroke-width="0.5" /><text x="100" y="163.33333333333334" dominant-baseline="middle"
          text-anchor="middle" font-size="15" fill="white">6</text><circle cx="-90" cy="160" r="10" fill="blue" stroke="black" stroke-width="0.5" /><text x="-90" y="163.33333333333334" dominant-baseline="middle"
          text-anchor="middle" font-size="15" fill="white">7</text><circle cx="10" cy="160" r="10" fill="blue" stroke="black" stroke-width="0.5" /><text x="10" y="163.33333333333334" dominant-baseline="middle"
          text-anchor="middle" font-size="15" fill="white">8</text><circle cx="110" cy="160" r="10" fill="blue" stroke="black" stroke-width="0.5" /><text x="110" y="163.33333333333334" dominant-baseline="middle"
          text-anchor="middle" font-size="15" fill="white">9</text><circle cx="-80" cy="160" r="10" fill="blue" stroke="black" stroke-width="0.5" /><text x="-80" y="163.33333333333334" dominant-baseline="middle"
          text-anchor="middle" font-size="15" fill="white">10</text><circle cx="20" cy="160" r="10" fill="blue" stroke="black" stroke-width="0.5" /><text x="20" y="163.33333333333334" dominant-baseline="middle"
          text-anchor="middle" font-size="15" fill="white">11</text><circle cx="120" cy="160" r="10" fill="blue" stroke="black" stroke-width="0.5" /><text x="120" y="163.33333333333334" dominant-baseline="middle"
          text-anchor="middle" font-size="15" fill="white">12</text></svg>