<svg width="800" height="800" viewBox="-400 -400 800 800" xmlns="http://www.w3.org/2000/svg"><line x1="0" y1="0" x2="40.00000000000001" y2="69.28203230275508" stroke="gray" stroke-width="3" /><line x1="0" y1="0" x2="-80" y2="9.797174393178826e-15" stroke="gray" stroke-width="3" /><line x1="0" y1="0" x2="39.99999999999994" y2="-69.28203230275513" stroke="gray" stroke-width="3" /><line x1="40.00000000000001" y1="69.28203230275508" x2="150.35081932574536" y2="54.723222932106985" stroke="gray" stroke-width="3" /><line x1="40.00000000000001" y1="69.28203230275508" x2="80.00000000000006" y2="138.56406460551017" stroke="gray" stroke-width="3" /><line x1="40.00000000000001" y1="69.28203230275508" x2="-27.783708426708777" y2="157.5692404819533" stroke="gray" stroke-width="3" /><line x1="-80" y1="9.797174393178826e-15" x2="-122.56711089903646" y2="102.84601754984632" stroke="gray" stroke-width="3" /><line x1="-80" y1="9.797174393178826e-15" x2="-160" y2="9.064862236236767e-14" stroke="gray" stroke-width="3" /><line x1="-80" y1="9.797174393178826e-15" x2="-122.56711089903654" y2="-102.84601754984622" stroke="gray" stroke-width="3" /><line x1="39.99999999999994" y1="-69.28203230275513" x2="-27.783708426708852" y2="-157.56924048195327" stroke="gray" stroke-width="3" /><line x1="39.99999999999994" y1="-69.28203230275513" x2="79.99999999999989" y2="-138.56406460551025" stroke="gray" stroke-width="3" /><line x1="39.99999999999994" y1="-69.28203230275513" x2="150.35081932574536" y2="-54.72322293210698" stroke="gray" stroke-width="3" /><circle cx="0" cy="0" r="10" fill="blue" stroke="black" stroke-width="0.5" /><text x="0" y="3.3333333333333335" dominant-baseline="middle"
          text-anchor="middle" font-size="15" fill="white">0</text><circle cx="40.00000000000001" cy="69.28203230275508" r="10" fill="blue" stroke="black" stroke-width="0.5" /><text x="40.00000000000001" y="72.61536563608841" dominant-baseline="middle"
          text-anchor="middle" font-size="15" fill="white">1</text><circle cx="-80" cy="9.797174393178826e-15" r="10" fill="blue" stroke="black" stroke-width="0.5" /><text x="-80" y="3.3333333333333433" dominant-baseline="middle"
          text-anchor="middle" font-size="15" fill="white">2</text><circle cx="39.99999999999994" cy="-69.28203230275513" r="10" fill="blue" stroke="black" stroke-width="0.5" /><text x="39.99999999999994" y="-65.9486989694218" dominant-baseline="middle"
          text-anchor="middle" font-size="15" fill="white">3</text><circle cx="150.35081932574536" cy="54.723222932106985" r="10" fill="blue" stroke="black" stroke-width="0.5" /><text x="150.35081932574536" y="58.05655626544032" dominant-baseline="middle"
          text-anchor="middle" font-size="15" fill="white">4</text><circle cx="80.00000000000006" cy="138.56406460551017" r="10" fill="blue" stroke="black" stroke-width="0.5" /><text x="80.00000000000006" y="141.8973979388435" dominant-baseline="middle"
          text-anchor="middle" font-size="15" fill="white">5</text><circle cx="-27.783708426708777" cy="157.5692404819533" r="10" fill="blue" stroke="black" stroke-width="0.5" /><text x="-27.783708426708777" y="160.90257381528664" dominant-baseline="middle"
          text-anchor="middle" font-size="15" fill="white">6</text><circle cx="-122.56711089903646" cy="102.84601754984632" r="10" fill="blue" stroke="black" stroke-width="0.5" /><text x="-122.56711089903646" y="106.17935088317965" dominant-baseline="middle"
          text-anchor="middle" font-size="15" fill="white">7</text><circle cx="-160" cy="9.064862236236767e-14" r="10" fill="blue" stroke="black" stroke-width="0.5" /><text x="-160" y="3.333333333333424" dominant-baseline="middle"
          text-anchor="middle" font-size="15" fill="white">8</text><circle cx="-122.56711089903654" cy="-102.84601754984622" r="10" fill="blue" stroke="black" stroke-width="0.5" /><text x="-122.56711089903654" y="-99.5126842165129" dominant-baseline="middle"
          text-anchor="middle" font-size="15" fill="white">9</text><circle cx="-27.783708426708852" cy="-157.56924048195327" r="10" fill="blue" stroke="black" stroke-width="0.5" /><text x="-27.783708426708852" y="-154.23590714861993" dominant-baseline="middle"
          text-anchor="middle" font-size="15" fill="white">10</text><circle cx="79.99999999999989" cy="-138.56406460551025" r="10" fill="blue" stroke="black" stroke-width="0.5" /><text x="79.99999999999989" y="-135.2307312721769" dominant-baseline="middle"
          text-anchor="middle" font-size="15" fill="white">11</text><circle cx="150.35081932574536" cy="-54.72322293210698" r="10" fill="blue" stroke="black" stroke-width="0.5" /><text x="150.35081932574536" y="-51.38988959877364" dominant-baseline="middle"
          text-anchor="middle" font-size="15" fill="white">12</text></svg>